<?xml version="1.0" encoding="utf-8"?>
<!-- Generator: Adobe Illustrator 16.0.0, SVG Export Plug-In . SVG Version: 6.00 Build 0)  -->
<!DOCTYPE svg PUBLIC "-//W3C//DTD SVG 1.1//EN" "http://www.w3.org/Graphics/SVG/1.1/DTD/svg11.dtd">
<svg version="1.1" id="Layer_1" xmlns="http://www.w3.org/2000/svg" xmlns:xlink="http://www.w3.org/1999/xlink" x="0px" y="0px"
	 width="100px" height="100px" viewBox="0 0 100 100" enable-background="new 0 0 100 100" xml:space="preserve">
<g id="Calque_1" display="none">
</g>
<g id="Calque_2">
	<g>
		<path fill="#007EBC" d="M82.074,11.621c0-2.447-1.991-4.437-4.437-4.437h-0.929c0.006-0.28,0.014-0.989-0.001-1.65
			c-0.019-0.845-0.487-0.887-0.487-0.887s-25.229,0-26.117,0c-0.887,0-2.187,0.496-2.187,0.496v0.133l-0.008-0.01
			c-0.004,0.004-0.381,0.294-0.934,0.476V5.478c0,0-0.664-0.31-1.932-0.498v2.838h1.932V7.362c0.479,0.149,0.832,0.383,0.942,0.461
			v0.035h-10.21c0.147-0.102,0.388-0.25,0.691-0.358v0.318h5.085V4.849c-1.333-0.035-3.033,0.103-5.085,0.629v0.153
			c-0.419-0.142-0.733-0.365-0.846-0.451V5.143h-0.046l-0.001-0.002l-0.001,0.001h-2.877c-0.864,1.36-0.087,2.395,0.211,2.716h-0.37
			c-2.377,0-4.31,1.933-4.31,4.31v17.54h-2.553l-0.228,0.326c-0.092,0.133-2.234,3.308-0.086,8.944l0.187,0.489h2.679v2.113
			c0,2.377,1.934,4.311,4.311,4.311h42.809c2.377,0,4.311-1.934,4.311-4.301l0.123-9.75l-0.059,0
			c0.27-0.571,0.423-1.207,0.423-1.879L82.074,11.621L82.074,11.621z M28.534,37.947c-1.246-3.632-0.474-5.91-0.087-6.718h1.71
			v0.603h-1.269c0,0-0.202,0.432-0.323,1.255h1.591v0.507h-1.65c-0.007,0.081-0.011,0.167-0.016,0.253h1.666v0.254h-1.678
			c-0.022,0.867,0.067,1.973,0.41,3.306h1.268v0.54H28.534z M57.775,34.398h19.861c0.356,0,0.701-0.046,1.033-0.126v7.732
			c0,0.35-0.284,0.633-0.633,0.633H33.918c-0.351,0-0.633-0.284-0.633-0.633V12.382c0-0.35,0.284-0.633,0.633-0.633h19.42v18.213
			C53.338,32.407,55.328,34.398,57.775,34.398z M46.975,7.099V6.005c0.428-0.129,0.762-0.319,0.942-0.437v1.95
			C47.721,7.395,47.389,7.216,46.975,7.099z M38.398,5.896v1.339c-0.375,0.122-0.673,0.3-0.846,0.421V5.491
			C37.738,5.617,38.036,5.785,38.398,5.896z M77.275,44.37H34.467c-1.539,0-2.79-1.251-2.79-2.79V12.168
			c0-1.538,1.251-2.79,2.79-2.79h19.484c-0.285,0.485-0.479,1.028-0.562,1.607H33.918c-0.77,0-1.395,0.626-1.395,1.395v29.622
			c0,0.769,0.626,1.394,1.395,1.394h44.119c0.769,0,1.395-0.625,1.395-1.394v-7.987c0.259-0.115,0.504-0.253,0.733-0.413l-0.1,7.978
			C80.065,43.119,78.813,44.37,77.275,44.37z M80.188,31.822v0.013c-0.577,0.784-1.504,1.296-2.55,1.296H57.775
			c-1.747,0-3.17-1.421-3.17-3.169V11.621c0-1.747,1.423-3.169,3.17-3.169h19.861c1.747,0,3.169,1.422,3.169,3.169v18.341
			c0,0.696-0.228,1.337-0.608,1.861H80.188z"/>
		<path fill="#007EBC" d="M76.875,10.987h-18.34c-0.769,0-1.395,0.626-1.395,1.395V29.2c0,0.77,0.626,1.395,1.395,1.395h18.34
			c0.771,0,1.396-0.625,1.396-1.395V12.381C78.271,11.613,77.646,10.987,76.875,10.987z M57.902,29.2V12.381
			c0-0.35,0.283-0.633,0.633-0.633h7.209c-4.164,0.902-7.294,4.613-7.294,9.043c0,4.431,3.13,8.142,7.294,9.044h-7.209
			C58.186,29.835,57.902,29.55,57.902,29.2z M67.705,12.043c4.824,0,8.749,3.924,8.749,8.748c0,4.824-3.925,8.748-8.749,8.748
			c-4.822,0-8.747-3.924-8.747-8.748C58.959,15.968,62.883,12.043,67.705,12.043z M77.512,29.2c0,0.35-0.285,0.634-0.635,0.634
			H69.67c4.164-0.903,7.293-4.614,7.293-9.043c0-4.43-3.131-8.141-7.294-9.043h7.208c0.351,0,0.635,0.284,0.635,0.633V29.2z"/>
		<path fill="#007EBC" d="M67.706,28.628c4.322,0,7.839-3.516,7.839-7.837c0-4.321-3.517-7.837-7.839-7.837
			s-7.838,3.517-7.838,7.837C59.868,25.112,63.384,28.628,67.706,28.628z M67.706,13.461c4.042,0,7.33,3.288,7.33,7.33
			c0,4.042-3.288,7.331-7.33,7.331s-7.331-3.288-7.331-7.331C60.375,16.749,63.664,13.461,67.706,13.461z"/>
		<path fill="#007EBC" d="M42.685,30.088c-1.066,0-2.069,0.35-2.903,1.012c-1.122,0.892-1.765,2.224-1.765,3.657
			c0,2.574,2.094,4.669,4.669,4.669s4.669-2.095,4.669-4.669C47.355,32.182,45.26,30.088,42.685,30.088z M42.685,38.665
			c-2.155,0-3.908-1.752-3.908-3.908c0-1.199,0.54-2.314,1.479-3.061l2.43,3.061l0.008-0.012l2.125,2.475l0.192-0.166l-2.175-2.534
			l1.946-3.057c1.087,0.695,1.812,1.91,1.812,3.292C46.593,36.912,44.841,38.665,42.685,38.665z"/>
		<path fill="#007EBC" d="M67.705,26.394c2.867,0,5.19-2.324,5.19-5.19c0-2.866-2.323-5.189-5.19-5.189
			c-2.865,0-5.189,2.324-5.189,5.189C62.516,24.071,64.84,26.394,67.705,26.394z M67.705,19.311c1.046,0,1.895,0.848,1.895,1.893
			c0,1.046-0.849,1.894-1.895,1.894c-1.045,0-1.892-0.848-1.892-1.894C65.814,20.159,66.66,19.311,67.705,19.311z"/>
		<path fill="#007EBC" d="M47.357,14.958h-9.551c-0.21,0-0.38,0.17-0.38,0.38v12.086c0,0.209,0.17,0.38,0.38,0.38h9.551
			c0.209,0,0.38-0.17,0.38-0.38V15.338C47.736,15.128,47.566,14.958,47.357,14.958z M47.483,27.424c0,0.069-0.057,0.126-0.126,0.126
			h-9.551c-0.07,0-0.127-0.057-0.127-0.126V15.338c0-0.07,0.057-0.127,0.127-0.127h9.551c0.07,0,0.126,0.057,0.126,0.127V27.424z"/>
		<circle fill="#007EBC" cx="50.917" cy="37.407" r="1.933"/>
		<path fill="#007EBC" d="M50.917,29.771c-1.136,0-2.061,0.924-2.061,2.06c0,1.136,0.924,2.06,2.061,2.06
			c1.136,0,2.06-0.924,2.06-2.06S52.053,29.771,50.917,29.771z M50.917,33.639c-0.996,0-1.807-0.812-1.807-1.807
			c0-0.996,0.811-1.806,1.807-1.806s1.806,0.811,1.806,1.806C52.723,32.827,51.913,33.639,50.917,33.639z"/>
		<path fill="#007EBC" d="M44.264,4.89c-0.125-0.01-0.258-0.016-0.39-0.024v2.951h0.39V4.89z"/>
		<rect x="38.398" y="24.466" fill="#007EBC" width="8.155" height="0.253"/>
		<path fill="#007EBC" d="M65.343,61.469l-0.237,0.565c0,0-0.043,1.563-0.043,1.839c0,0.273,2.874-0.317,3.551-0.866V58.99
			c0,0-0.066-0.377-0.3-0.672L65.343,61.469z"/>
		<path fill="#007EBC" d="M47.039,61.48l-2.978-3.159c-0.232,0.294-0.298,0.669-0.298,0.669v4.017c0.677,0.549,3.55,1.14,3.55,0.866
			c0-0.275-0.042-1.839-0.042-1.839L47.039,61.48z"/>
		<path fill="#007EBC" d="M49.195,62.754v1.119h7.375h6.613v-1.119c0,0,0.053-0.064,0.213-0.244H48.982
			C49.142,62.689,49.195,62.754,49.195,62.754z"/>
		<path fill="#007EBC" d="M67.684,57.978c-0.761-0.042-3.17,0-3.17,0h-0.506v-9.35c0-0.139-0.114-0.253-0.254-0.253h-1.606
			c-0.141,0-0.254,0.113-0.254,0.253v9.35h-5.917h-8.113c0,0-2.409-0.042-3.17,0c-0.079,0.005-0.151,0.021-0.218,0.044l3.094,3.282
			c0.449,0.317,0.949,0.688,1.14,0.899c0.017,0.02,0.032,0.036,0.047,0.054h14.864c0.017-0.018,0.031-0.034,0.049-0.054
			c0.188-0.209,0.676-0.572,1.123-0.888l3.105-3.295C67.832,57.998,67.762,57.981,67.684,57.978z"/>
		<path fill="#007EBC" d="M33.295,47.501l0.125,0.017c-0.788-0.191-1.645-0.198-2.124-0.181v-0.288l-0.105-0.109
			c-2.362-2.494-6.533-3.034-7.438-3.034c-1.143,0-1.314,1.795-1.33,1.999l-0.004,0.041l0.006,0.04
			c0.457,3.314,0.011,6.427-0.061,6.884c-0.498,1.008-0.056,2.873-0.004,3.087l0.046,0.181l0.17,0.076
			c0.001,0,0.003,0.001,0.004,0.002c-0.009,0.047-0.046,0.131-0.084,0.185l-0.05,0.067l-0.016,0.084
			c-0.333,1.667,0.499,2.473,0.534,2.506l0.059,0.057l0.077,0.027c0.639,0.223,1.304,0.336,1.978,0.336
			c3.399,0,6.01-2.813,6.12-2.933l0.099-0.11V56.12c0.454,0.016,1.247,0.011,1.999-0.153C32.449,53.508,33.261,47.745,33.295,47.501
			z M23.186,45.924c0.021-0.227,0.074-0.487,0.152-0.716c1.052,0.253,4.182,1.152,5.515,3.148c0.013,0.017,1.25,1.641,0.008,2.941
			c-1.076,1.126-3.664,1.54-5.724,1.566C23.251,52.094,23.624,49.148,23.186,45.924z M23.444,58.453
			c-0.128-0.164-0.458-0.698-0.282-1.682c0.051-0.082,0.119-0.215,0.156-0.371c1.773-0.204,5.418-0.371,5.971,0.781
			c-1.017,0.729-2.522,1.533-4.211,1.533C24.523,58.716,23.973,58.627,23.444,58.453z M30.537,56.133
			c-0.165,0.166-0.53,0.51-1.04,0.895c-0.747-1.363-4.828-1.031-6.155-0.883c-0.002-0.047-0.009-0.095-0.021-0.143
			c-0.03-0.113-0.099-0.261-0.254-0.379c-0.126-0.587-0.315-1.884-0.002-2.447l0.031-0.056l0.001-0.003
			c1.26-0.016,4.566-0.196,5.947-1.645c1.39-1.458,0.022-3.254,0.014-3.264c-1.378-2.067-4.501-2.974-5.622-3.24
			c0.09-0.18,0.198-0.304,0.318-0.304c0.687,0,4.574,0.472,6.783,2.69v8.777H30.537z"/>
		<path fill="#007EBC" d="M47.31,55.049l-0.119-0.026c0.818-3.583,0.009-6.553,0.001-6.583l0.117-0.033
			c-0.354,0.024-0.678,0.062-0.925,0.125c-1.141,0.285-2.44,0.571-5.896,0.633c-3.086,0.057-6.298-1.303-6.947-1.592
			c-0.067,0.485-0.801,6.009-0.004,8.313c0.639-0.287,3.858-1.652,6.952-1.596c3.455,0.064,4.754,0.35,5.896,0.635
			C46.632,54.987,46.956,55.025,47.31,55.049z"/>
		<path fill="#007EBC" d="M64.324,52.442v0.295h4.797c0.014-0.096,0.02-0.192,0.02-0.292c0-0.001,0-0.003,0-0.004L64.324,52.442
			L64.324,52.442z"/>
		<path fill="#007EBC" d="M64.324,53.413h4.615c0.023-0.056,0.045-0.112,0.063-0.169h-4.679V53.413z"/>
		<path fill="#007EBC" d="M64.324,54.872h2.391c0.895,0,1.674-0.485,2.094-1.206h-4.486v1.206H64.324z"/>
		<path fill="#007EBC" d="M64.324,50.022v0.644h4.034c-0.432-0.398-1.007-0.644-1.644-0.644H64.324z"/>
		<path fill="#007EBC" d="M51.486,57.959c0.543,0,0.984-0.44,0.984-0.982v-9.173c0-0.543-0.441-0.983-0.984-0.983
			c-0.542,0-0.982,0.44-0.982,0.983v0.633c-0.215,0-1.804-0.108-3.061-0.039c0.076,0.293,0.785,3.197,0,6.659
			c1.257,0.07,2.847-0.038,3.063-0.038v1.956C50.504,57.519,50.944,57.959,51.486,57.959z"/>
		<path fill="#007EBC" d="M61.629,56.977v-9.173c0-0.543-0.439-0.983-0.981-0.983c-0.543,0-0.983,0.44-0.983,0.983v9.173
			c0,0.542,0.44,0.982,0.983,0.982C61.189,57.959,61.629,57.519,61.629,56.977z"/>
		<path fill="#007EBC" d="M57.383,56.977v-9.173c0-0.543-0.574-0.983-1.283-0.983s-1.284,0.44-1.284,0.983v9.173
			c0,0.542,0.575,0.982,1.284,0.982S57.383,57.519,57.383,56.977z"/>
		<rect x="52.756" y="51.348" fill="#007EBC" width="1.774" height="0.256"/>
		<rect x="52.756" y="51.857" fill="#007EBC" width="1.774" height="3.076"/>
		<rect x="52.756" y="46.483" fill="#007EBC" width="1.774" height="1.003"/>
		<rect x="52.756" y="55.694" fill="#007EBC" width="1.774" height="0.255"/>
		<rect x="52.756" y="56.202" fill="#007EBC" width="1.774" height="1.312"/>
		<rect x="52.756" y="48.756" fill="#007EBC" width="1.774" height="1.831"/>
		<rect x="52.756" y="48.248" fill="#007EBC" width="1.774" height="0.255"/>
		<rect x="57.604" y="51.348" fill="#007EBC" width="1.774" height="0.256"/>
		<rect x="57.604" y="51.857" fill="#007EBC" width="1.774" height="3.076"/>
		<rect x="57.604" y="46.483" fill="#007EBC" width="1.774" height="1.003"/>
		<rect x="57.604" y="55.694" fill="#007EBC" width="1.774" height="0.255"/>
		<rect x="57.604" y="56.202" fill="#007EBC" width="1.774" height="1.312"/>
		<rect x="57.604" y="48.756" fill="#007EBC" width="1.774" height="1.831"/>
		<rect x="57.604" y="48.248" fill="#007EBC" width="1.774" height="0.255"/>
	</g>
</g>
</svg>
