<svg xmlns="http://www.w3.org/2000/svg" xmlns:xlink="http://www.w3.org/1999/xlink" version="1.1" id="Layer_1" x="0px" y="0px" width="100px" height="100px" viewBox="5.0 -10.0 100.0 135.0" enable-background="new 0 0 100 100" xml:space="preserve">
<rect fill="none" width="100" height="100"/>
<path fill="#2980b9" d="M19.708,86.158c0,0.665-0.504,1.201-1.165,1.201h-0.06c-1.979,0-3.596-1.617-3.596-3.601v-3.355  c0-0.661,0.536-1.197,1.202-1.197c0.661,0,1.193,0.536,1.193,1.197v3.355c0,0.666,0.536,1.202,1.202,1.202  C19.144,84.961,19.708,85.497,19.708,86.158z M16.088,74.487c0.661,0,1.193-0.541,1.193-1.201v-7.123  c0-0.661-0.532-1.192-1.193-1.192c-0.666,0-1.202,0.531-1.202,1.192v7.123C14.887,73.946,15.423,74.487,16.088,74.487z   M16.088,60.247c0.661,0,1.193-0.541,1.193-1.201v-7.122c0-0.66-0.532-1.192-1.193-1.192c-0.666,0-1.202,0.532-1.202,1.192v7.122  C14.887,59.706,15.423,60.247,16.088,60.247z M68.807,40.739h7.123c0.66,0,1.196-0.536,1.196-1.197c0-0.666-0.536-1.197-1.196-1.197  h-7.123c-0.661,0-1.197,0.532-1.197,1.197C67.609,40.203,68.146,40.739,68.807,40.739z M54.566,40.739h7.123  c0.66,0,1.192-0.536,1.192-1.197c0-0.666-0.532-1.197-1.192-1.197h-7.123c-0.661,0-1.197,0.532-1.197,1.197  C53.369,40.203,53.905,40.739,54.566,40.739z M47.449,38.345h-7.123c-0.661,0-1.197,0.532-1.197,1.197  c0,0.661,0.536,1.197,1.197,1.197h7.123c0.661,0,1.197-0.536,1.197-1.197C48.646,38.876,48.109,38.345,47.449,38.345z   M68.386,87.359h7.118c0.656,0,1.197-0.536,1.197-1.201c0-0.661-0.541-1.197-1.197-1.197h-7.118c-0.665,0-1.201,0.536-1.201,1.197  C67.185,86.823,67.721,87.359,68.386,87.359z M52.944,86.158c0,0.665,0.536,1.201,1.197,1.201h7.122  c0.661,0,1.192-0.536,1.192-1.201c0-0.661-0.531-1.197-1.192-1.197h-7.122C53.48,84.961,52.944,85.497,52.944,86.158z   M18.968,38.345h-0.485c-1.979,0-3.596,1.613-3.596,3.591v2.875c0,0.661,0.536,1.197,1.202,1.197c0.661,0,1.193-0.536,1.193-1.197  v-2.875c0-0.661,0.536-1.197,1.202-1.197h0.485c0.661,0,1.197-0.536,1.197-1.197C20.165,38.876,19.629,38.345,18.968,38.345z   M47.023,84.961h-7.123c-0.661,0-1.197,0.536-1.197,1.197c0,0.665,0.536,1.201,1.197,1.201h7.123c0.661,0,1.202-0.536,1.202-1.201  C48.225,85.497,47.685,84.961,47.023,84.961z M32.783,84.961h-7.123c-0.661,0-1.192,0.536-1.192,1.197  c0,0.665,0.531,1.201,1.192,1.201h7.123c0.661,0,1.197-0.536,1.197-1.201C33.98,85.497,33.444,84.961,32.783,84.961z M33.208,38.345  h-7.123c-0.661,0-1.192,0.532-1.192,1.197c0,0.661,0.531,1.197,1.192,1.197h7.123c0.661,0,1.202-0.536,1.202-1.197  C34.41,38.876,33.869,38.345,33.208,38.345z M93.857,53.841v18.017c0,1.327-1.072,2.395-2.394,2.395h-3.596v8.777  C87.868,89.624,82.497,95,75.893,95H18.122c-6.604,0-11.98-5.376-11.98-11.971V42.676c0-6.601,5.375-11.976,11.98-11.976H34.35  c1.613-2.357,3.046-4.932,4.506-7.576C42.952,15.71,47.185,8.04,56.193,5.061c0.426-0.144,0.896-0.03,1.221,0.289l18.778,18.783  c0.292,0.291,0.416,0.716,0.319,1.123c-0.097,0.402-0.397,0.726-0.79,0.86c-3.023,0.998-5.436,2.602-7.497,4.585h7.668  c6.604,0,11.976,5.375,11.976,11.976v8.768h3.596C92.785,51.443,93.857,52.52,93.857,53.841z M69.764,21.096  c-5.011,1.854-8.343,5.384-11.148,9.604h6.323c2.232-2.556,4.866-4.733,8.245-6.184L69.764,21.096z M61.541,12.87  c-4.622,1.712-7.793,4.874-10.459,8.665c1.506,0.333,2.93,1.123,4.118,2.315c1.104,1.1,1.89,2.51,2.436,4.058  c2.63-3.628,5.814-6.775,10.261-8.68L61.541,12.87z M53.508,25.542c-1.164-1.174-2.565-1.793-4.03-1.793  c-2.167,0-4.118,1.34-5.366,3.675c-0.55,1.04-0.929,2.149-1.179,3.277h12.918C55.564,28.667,54.788,26.817,53.508,25.542z   M37.137,30.7h3.346c0.291-1.507,0.776-3.004,1.521-4.4c1.41-2.662,3.684-4.4,6.226-4.834c2.856-4.357,6.336-8.205,11.495-10.419  l-3.471-3.471c-7.645,2.84-11.366,9.582-15.299,16.705C39.749,26.462,38.487,28.611,37.137,30.7z M83.079,74.252H59.221  c-1.317,0-2.39-1.067-2.39-2.395V53.841c0-1.321,1.072-2.397,2.39-2.397h23.858v-8.768c0-3.961-3.226-7.183-7.187-7.183H18.122  c-3.965,0-7.187,3.221-7.187,7.183v40.354c0,3.961,3.222,7.178,7.187,7.178h57.771c3.961,0,7.187-3.217,7.187-7.178V74.252z   M89.064,56.235h-27.44v13.229h27.44V56.235z M63.843,62.85c0-2.672,2.173-4.854,4.849-4.854s4.853,2.182,4.853,4.854  c0,2.681-2.177,4.849-4.853,4.849S63.843,65.53,63.843,62.85z M66.237,62.85c0,1.354,1.095,2.454,2.454,2.454  c1.354,0,2.459-1.101,2.459-2.454c0-1.354-1.104-2.459-2.459-2.459C67.332,60.391,66.237,61.495,66.237,62.85z"/>
</svg>
